<svg xmlns="http://www.w3.org/2000/svg" viewBox="0 0 1600 1000" fill="none">
  <defs>
    <linearGradient id="dawn" x2="0" y2="1"><stop stop-color="#778fae"/><stop offset=".48" stop-color="#e6a6a6"/><stop offset="1" stop-color="#f4d6bb"/></linearGradient>
    <linearGradient id="hair" x2="1" y2="1"><stop stop-color="#252b42"/><stop offset=".58" stop-color="#4a405b"/><stop offset="1" stop-color="#9b627b"/></linearGradient>
    <linearGradient id="coat" x2=".8" y2="1"><stop stop-color="#fff0e2"/><stop offset="1" stop-color="#c87982"/></linearGradient>
    <radialGradient id="sun"><stop stop-color="#fff2d6" stop-opacity=".9"/><stop offset="1" stop-color="#fff2d6" stop-opacity="0"/></radialGradient>
  </defs>
  <path fill="url(#dawn)" d="M0 0h1600v1000H0z"/>
  <circle cx="1110" cy="340" r="250" fill="url(#sun)"/>
  <circle cx="1110" cy="340" r="91" fill="#fff0d1" fill-opacity=".7"/>
  <path fill="#65728b" fill-opacity=".68" d="M0 617 211 435l133 119 181-268 192 287 176-172 192 221 158-146 177 178 180-186v532H0z"/>
  <path fill="#3e4a62" fill-opacity=".69" d="M0 777 218 588l174 187 225-303 202 313 187-214 190 202 205-248 199 240v235H0z"/>
  <path fill="#30394d" d="M0 835h1600v165H0z"/>
  <path stroke="#e9c1b2" stroke-opacity=".45" stroke-width="3" d="M105 0c70 180 65 337-17 472M1480 0c-64 200-59 365 16 500"/>
  <path fill="#f2a7b9" fill-opacity=".88" d="M203 207c16-13 30-12 43 3 12-15 26-16 41-3-2 20-16 36-42 50-26-15-40-32-42-50zM1364 356c14-11 26-10 37 3 11-13 23-14 37-3-2 17-14 31-37 44-23-13-35-28-37-44zM925 153c11-9 21-8 30 2 9-10 19-11 30-2-1 14-11 25-30 35-19-10-29-21-30-35z"/>
  <path fill="url(#coat)" d="M507 1000c12-214 40-354 129-422 106-82 254-49 323 49 53 75 65 210 70 373H507z"/>
  <path fill="#ddb09f" d="M621 540c-18-86-8-179 26-238 36-62 105-91 179-70 79 22 120 95 111 190-7 82-48 146-108 175-80 37-184 20-208-57z"/>
  <path fill="url(#hair)" d="M609 478c-53-103-43-258 29-331 61-61 195-77 275-24 82 55 102 153 66 275-20-50-39-93-87-112-47-18-97 0-133-35-13 85-70 165-150 227z"/>
  <path fill="#403b52" d="M618 447c-38 115-7 255 55 333l54-215-109-118zM850 401c107 54 156 207 121 330l-93-139-28-191z"/>
  <path stroke="#654955" stroke-linecap="round" stroke-width="8" d="M692 523c21-12 45-14 68-6M799 515c20-9 41-8 59 3"/>
  <path stroke="#9b5b65" stroke-linecap="round" stroke-width="7" d="M739 574c18 11 37 12 56 1"/>
  <path fill="#fcdbc8" fill-opacity=".9" d="M559 866c146-81 264-82 355-5l60 139H507z"/>
  <path fill="#fae5dd" fill-opacity=".72" d="M0 863c203-43 369-21 498 66M1101 906c171-84 337-101 499-52" stroke="#fae5dd" stroke-opacity=".72" stroke-width="3"/>
  <path fill="#fff0d1" fill-opacity=".68" d="M360 299h8v8h-8zM1249 517h7v7h-7zM1011 679h9v9h-9zM145 560h8v8h-8z"/>
</svg>
